<svg xmlns="http://www.w3.org/2000/svg" width="120" height="28" viewBox="0 0 120 28" role="img" aria-label="12 / 12"><title>12 / 12</title><rect x="1" y="26.5" width="8" height="1.5" rx="1" fill="#30363d"/><rect x="11" y="26.5" width="8" height="1.5" rx="1" fill="#30363d"/><rect x="21" y="26.5" width="8" height="1.5" rx="1" fill="#30363d"/><rect x="31" y="26.5" width="8" height="1.5" rx="1" fill="#30363d"/><rect x="41" y="26.5" width="8" height="1.5" rx="1" fill="#30363d"/><rect x="51" y="26.5" width="8" height="1.5" rx="1" fill="#30363d"/><rect x="61" y="26.5" width="8" height="1.5" rx="1" fill="#30363d"/><rect x="71" y="26.5" width="8" height="1.5" rx="1" fill="#30363d"/><rect x="81" y="26.5" width="8" height="1.5" rx="1" fill="#30363d"/><rect x="91" y="26.5" width="8" height="1.5" rx="1" fill="#30363d"/><rect x="101" y="26.5" width="8" height="1.5" rx="1" fill="#30363d"/><rect x="111" y="4" width="8" height="24" rx="1" fill="#00d4ff"/></svg>
