<svg xmlns="http://www.w3.org/2000/svg" width="173.6" height="40" viewBox="0 0 173.6 40" role="img" aria-label="Buy me a coffee"><title>Buy me a coffee</title><rect x="0.5" y="0.5" width="172.6" height="39" rx="10" fill="#0d1117" stroke="#30363d"/><rect x="8" y="8" width="24" height="24" rx="6" fill="#FFDD00"/><path d="M13 17h11l-1.4 9.2a1.6 1.6 0 0 1-1.6 1.3h-5a1.6 1.6 0 0 1-1.6-1.3z" fill="#0d0c22"/><path d="M24 19h1.3a2.2 2.2 0 0 1 0 4.4H23.4" fill="none" stroke="#0d0c22" stroke-width="1.6"/><path d="M16.5 14.5c-.8-1 .8-1.6 0-2.6M20.5 14.5c-.8-1 .8-1.6 0-2.6" fill="none" stroke="#0d0c22" stroke-width="1.3" stroke-linecap="round"/><text x="42" y="25" font-family="'Segoe UI', -apple-system, BlinkMacSystemFont, 'Helvetica Neue', Ubuntu, Arial, sans-serif" font-size="14" font-weight="600" fill="#e6edf3">Buy me a coffee</text></svg>
